<svg width="160" height="120" viewBox="0 0 160 120" fill="none" xmlns="http://www.w3.org/2000/svg">
  <defs>
    <linearGradient id="g" x1="18" y1="15" x2="132" y2="112" gradientUnits="userSpaceOnUse">
      <stop stop-color="#FFE08A"/>
      <stop offset=".42" stop-color="#FF8A00"/>
      <stop offset="1" stop-color="#FF4D00"/>
    </linearGradient>
    <filter id="glow" x="-20%" y="-20%" width="140%" height="140%">
      <feGaussianBlur stdDeviation="3" result="blur"/>
      <feMerge>
        <feMergeNode in="blur"/>
        <feMergeNode in="SourceGraphic"/>
      </feMerge>
    </filter>
  </defs>
  <path d="M23 86c23-10 35-28 45-51 4-9 13-15 23-14 15 1 25 12 28 25l17 4-13 7c-4 2-8 2-12 1l-12-4c-4 8-10 14-18 18l26 27H91L72 79c-9 9-20 17-36 23l11-19-24 3Z" fill="url(#g)" filter="url(#glow)"/>
  <path d="M94 22 109 5l1 24M105 25l18-12-5 21" stroke="#FFD37A" stroke-width="6" stroke-linecap="round" stroke-linejoin="round"/>
  <path d="M57 69 38 48M57 69l7-30M57 69l34-6" stroke="#071322" stroke-width="5" stroke-linecap="round"/>
  <circle cx="38" cy="48" r="6" fill="#071322" stroke="#FFD37A" stroke-width="3"/>
  <circle cx="64" cy="39" r="6" fill="#071322" stroke="#FFD37A" stroke-width="3"/>
  <circle cx="91" cy="63" r="6" fill="#071322" stroke="#FFD37A" stroke-width="3"/>
  <path d="M82 42h18M91 33v18" stroke="#071322" stroke-width="5" stroke-linecap="round"/>
  <circle cx="103" cy="36" r="3" fill="#071322"/>
  <path d="M20 103c31-3 54-11 76-28" stroke="#FFB020" stroke-width="5" stroke-linecap="round" stroke-dasharray="3 12"/>
</svg>
